<svg width="56" height="56" viewBox="0 0 56 56" fill="none" xmlns="http://www.w3.org/2000/svg">
<path d="M23.1875 52.9375H10.5C6.40063 52.9375 3.0625 49.5994 3.0625 45.5V10.5C3.0625 6.40063 6.40063 3.0625 10.5 3.0625H29.75C33.8494 3.0625 37.1875 6.40063 37.1875 10.5V17.5C37.1875 18.2262 37.7738 18.8125 38.5 18.8125C39.2262 18.8125 39.8125 18.2262 39.8125 17.5V10.5C39.8125 4.9525 35.2975 0.4375 29.75 0.4375H10.5C4.9525 0.4375 0.4375 4.9525 0.4375 10.5V45.5C0.4375 51.0475 4.9525 55.5625 10.5 55.5625H23.1875C23.9137 55.5625 24.5 54.9762 24.5 54.25C24.5 53.5238 23.9137 52.9375 23.1875 52.9375Z" fill="#99542D"/>
<path d="M17.9375 6.5625C17.2113 6.5625 16.625 7.14875 16.625 7.875C16.625 8.60125 17.2113 9.1875 17.9375 9.1875H22.3125C23.0387 9.1875 23.625 8.60125 23.625 7.875C23.625 7.14875 23.0387 6.5625 22.3125 6.5625H17.9375Z" fill="#99542D"/>
<path d="M38.5 22.3125C29.3344 22.3125 21.875 29.7719 21.875 38.9375C21.875 48.1031 29.3344 55.5625 38.5 55.5625C47.6656 55.5625 55.125 48.1031 55.125 38.9375C55.125 29.7719 47.6656 22.3125 38.5 22.3125ZM38.5 52.9375C30.7825 52.9375 24.5 46.6594 24.5 38.9375C24.5 31.2156 30.7825 24.9375 38.5 24.9375C46.2175 24.9375 52.5 31.2156 52.5 38.9375C52.5 46.6594 46.2175 52.9375 38.5 52.9375Z" fill="#99542D"/>
<path d="M45.92 34.0375L37.3975 41.9475L33.7181 38.4256C33.1931 37.9269 32.3662 37.9444 31.8631 38.465C31.36 38.99 31.3818 39.8212 31.9025 40.32L36.4743 44.695C36.7281 44.9356 37.0562 45.0581 37.38 45.0581C37.6993 45.0581 38.0187 44.94 38.2725 44.7081L47.7006 35.9581C48.23 35.4637 48.265 34.6325 47.7706 34.1031C47.2806 33.5737 46.4493 33.5431 45.92 34.0375Z" fill="#99542D"/>
</svg>
