<svg width="56" height="56" viewBox="0 0 56 56" fill="none" xmlns="http://www.w3.org/2000/svg">
<path d="M41.125 26.6875C33.1625 26.6875 26.6875 33.1625 26.6875 41.125C26.6875 49.0875 33.1625 55.5625 41.125 55.5625C49.0875 55.5625 55.5625 49.0875 55.5625 41.125C55.5625 33.1625 49.0875 26.6875 41.125 26.6875ZM41.125 52.9375C34.6106 52.9375 29.3125 47.6394 29.3125 41.125C29.3125 34.6106 34.6106 29.3125 41.125 29.3125C47.6394 29.3125 52.9375 34.6106 52.9375 41.125C52.9375 47.6394 47.6394 52.9375 41.125 52.9375Z" fill="#99542D"/>
<path d="M46.7599 36.6975L39.8124 43.645L36.8024 40.635C36.2905 40.1231 35.4593 40.1231 34.9474 40.635C34.4355 41.1469 34.4355 41.9781 34.9474 42.49L38.8849 46.4275C39.143 46.6856 39.4755 46.8125 39.8124 46.8125C40.1493 46.8125 40.4861 46.6856 40.7399 46.4275L48.6149 38.5525C49.1268 38.0406 49.1268 37.2094 48.6149 36.6975C48.103 36.1856 47.2718 36.1856 46.7599 36.6975Z" fill="#99542D"/>
<path d="M42 24.0625C42 24.7887 42.5863 25.375 43.3125 25.375H45.5C46.2262 25.375 46.8125 24.7887 46.8125 24.0625C46.8125 23.3363 46.2262 22.75 45.5 22.75H43.3125C42.5863 22.75 42 23.3363 42 24.0625Z" fill="#99542D"/>
<path d="M14.875 38.0625H10.5C8.57063 38.0625 7 39.6331 7 41.5625V45.9375C7 47.8669 8.57063 49.4375 10.5 49.4375H14.875C16.8044 49.4375 18.375 47.8669 18.375 45.9375V41.5625C18.375 39.6331 16.8044 38.0625 14.875 38.0625ZM15.75 45.9375C15.75 46.4188 15.3563 46.8125 14.875 46.8125H10.5C10.0187 46.8125 9.625 46.4188 9.625 45.9375V41.5625C9.625 41.0812 10.0187 40.6875 10.5 40.6875H14.875C15.3563 40.6875 15.75 41.0812 15.75 41.5625V45.9375Z" fill="#99542D"/>
<path d="M23.625 47.25C24.3512 47.25 24.9375 46.6637 24.9375 45.9375V41.5625C24.9375 40.8363 24.3512 40.25 23.625 40.25C22.8988 40.25 22.3125 40.8363 22.3125 41.5625V45.9375C22.3125 46.6637 22.8988 47.25 23.625 47.25Z" fill="#99542D"/>
<path d="M45.5 0.4375H10.5C4.9525 0.4375 0.4375 4.9525 0.4375 10.5V45.5C0.4375 51.0475 4.9525 55.5625 10.5 55.5625H26.25C26.9762 55.5625 27.5625 54.9762 27.5625 54.25C27.5625 53.5238 26.9762 52.9375 26.25 52.9375H10.5C6.40063 52.9375 3.0625 49.5994 3.0625 45.5V10.5C3.0625 6.40063 6.40063 3.0625 10.5 3.0625H45.5C49.5994 3.0625 52.9375 6.40063 52.9375 10.5V27.125C52.9375 27.8512 53.5238 28.4375 54.25 28.4375C54.9762 28.4375 55.5625 27.8512 55.5625 27.125V10.5C55.5625 4.9525 51.0475 0.4375 45.5 0.4375Z" fill="#99542D"/>
<path d="M44.625 14.875C44.625 14.1488 44.0387 13.5625 43.3125 13.5625H12.6875C11.9613 13.5625 11.375 14.1488 11.375 14.875C11.375 15.6012 11.9613 16.1875 12.6875 16.1875H43.3125C44.0387 16.1875 44.625 15.6012 44.625 14.875Z" fill="#99542D"/>
<path d="M18.375 26.25C18.375 24.3206 16.8044 22.75 14.875 22.75H10.5C8.57063 22.75 7 24.3206 7 26.25V30.625C7 32.5544 8.57063 34.125 10.5 34.125H14.875C16.8044 34.125 18.375 32.5544 18.375 30.625V26.25ZM15.75 30.625C15.75 31.1063 15.3563 31.5 14.875 31.5H10.5C10.0187 31.5 9.625 31.1063 9.625 30.625V26.25C9.625 25.7687 10.0187 25.375 10.5 25.375H14.875C15.3563 25.375 15.75 25.7687 15.75 26.25V30.625Z" fill="#99542D"/>
<path d="M25.8125 25.375H30.1875C30.4238 25.375 30.5944 25.4669 30.6994 25.5413C31.2856 25.97 32.1081 25.8344 32.5325 25.2481C32.9569 24.6619 32.83 23.8394 32.2394 23.415C31.64 22.9775 30.9269 22.75 30.1831 22.75H25.8125C23.8831 22.75 22.3125 24.3206 22.3125 26.25V30.625C22.3125 31.5613 22.6756 32.4406 23.3363 33.1013C23.5944 33.3594 23.9269 33.4863 24.2637 33.4863C24.6006 33.4863 24.9375 33.3594 25.1913 33.1013C25.7031 32.5894 25.7031 31.7581 25.1913 31.2462C25.0294 31.08 24.9375 30.8569 24.9375 30.625V26.25C24.9375 25.7688 25.3312 25.375 25.8125 25.375Z" fill="#99542D"/>
</svg>
