<svg width="32" height="33" viewBox="0 0 32 33" fill="none" xmlns="http://www.w3.org/2000/svg">
<path d="M5.82292 28.1977H26.5637C28.8825 28.1977 30.2223 26.8579 30.2223 24.2041V9.9819C30.2223 7.341 28.8696 6.00122 26.1772 6.00122H5.43645C3.11761 6.00122 1.77783 7.32811 1.77783 9.9819V24.2041C1.77783 26.8708 3.13049 28.1977 5.82292 28.1977ZM14.467 17.75L4.74079 8.15259C5.02421 8.03665 5.35915 7.97224 5.74563 7.97224H26.2545C26.6538 7.97224 27.0017 8.03665 27.2851 8.16547L17.5846 17.75C17.0306 18.304 16.5282 18.5487 16.0258 18.5487C15.5105 18.5487 15.0081 18.2911 14.467 17.75ZM3.74885 24.2041V9.9819C3.74885 9.87884 3.74885 9.93037 3.74885 9.84019L11.1563 17.1188L3.76173 24.4231C3.74885 24.3587 3.74885 24.2814 3.74885 24.2041ZM28.2513 9.99478V24.217C28.2513 24.2685 28.2513 24.3329 28.2513 24.3845L20.8954 17.1188L28.2513 9.87884C28.2513 9.99478 28.2513 9.99478 28.2513 9.99478ZM5.74563 26.2267C5.38492 26.2267 5.07574 26.1751 4.80521 26.0592L12.5089 18.4457L13.3463 19.2701C14.248 20.159 15.1112 20.5326 16.0258 20.5326C16.9276 20.5326 17.8036 20.159 18.7054 19.2701L19.5427 18.4457L27.2335 26.0463C26.9501 26.1751 26.6281 26.2267 26.2545 26.2267H5.74563Z" fill="#99542D"/>
</svg>
