<svg width="56" height="56" viewBox="0 0 56 56" fill="none" xmlns="http://www.w3.org/2000/svg">
<path d="M13.7377 38.6312V35.7437C13.7377 35 13.1689 34.4312 12.4252 34.4312C11.6814 34.4312 11.1127 35 11.1127 35.7437V38.6312C11.1127 45.8062 16.9314 51.6687 24.0627 51.7125C24.1064 51.7125 24.1502 51.7125 24.1502 51.7125C27.6064 51.7125 30.8439 50.3562 33.3377 47.95C35.8314 45.4562 37.2314 42.175 37.2314 38.6312V38.2812C37.2314 37.5375 36.6627 36.9687 35.9189 36.9687C35.1752 36.9687 34.6064 37.5375 34.6064 38.2812V38.6312C34.6064 41.475 33.5127 44.1 31.5002 46.0687C29.5314 48.0375 26.9064 49.1312 24.1064 49.0875C18.3752 49.0437 13.7377 44.3625 13.7377 38.6312ZM27.6064 8.04998C27.6064 7.96248 27.6064 7.91873 27.6064 7.83123C27.6064 7.56873 27.7814 7.39373 28.0439 7.39373C28.4814 7.39373 28.8314 7.17498 29.0502 6.86873C29.1814 7.69998 29.8814 8.31248 30.7564 8.31248C31.4564 8.31248 32.0689 8.00623 32.4627 7.48123C32.7689 7.08748 32.9439 6.56248 32.9439 6.08123C32.9439 4.81248 31.9814 3.84998 30.7564 3.84998C29.8814 3.84998 29.1814 4.46248 29.0502 5.29373C28.8314 4.98748 28.4377 4.76873 28.0002 4.76873C26.3377 4.76873 24.9814 6.08123 24.9377 7.69998L23.0564 19.775C22.1814 25.2875 24.8064 30.7562 29.5752 33.2937C31.4564 34.3 33.6439 34.8687 35.7877 34.8687C37.9752 34.8687 40.1189 34.3437 42.0002 33.2937C46.7689 30.7125 49.3939 25.2875 48.5189 19.775L46.6377 7.69998C46.5939 6.08123 45.2377 4.76873 43.5752 4.76873C43.1377 4.76873 42.7877 4.98748 42.5252 5.29373C42.3939 4.46248 41.6502 3.84998 40.8189 3.84998C40.1627 3.84998 39.5064 4.15623 39.1127 4.68123C38.8064 5.07498 38.6314 5.59998 38.6314 6.08123C38.6314 7.34998 39.5939 8.35623 40.8189 8.35623C41.6939 8.35623 42.3939 7.74373 42.5252 6.91248C42.7439 7.21873 43.1377 7.43748 43.5752 7.43748C43.8377 7.43748 44.0127 7.61248 44.0127 7.87498C44.0127 7.96248 44.0127 8.00623 44.0127 8.09373L45.8939 20.2562C46.5939 24.675 44.4939 29.05 40.6877 31.0625C39.1564 31.8937 37.4502 32.3312 35.7002 32.3312C33.9502 32.3312 32.2439 31.8937 30.7127 31.0625C27.1252 28.9625 25.0252 24.6312 25.7252 20.2125L27.6064 8.04998ZM12.4252 21.875C9.45019 21.875 7.04395 24.325 7.04395 27.3C7.04395 30.275 9.45019 32.725 12.4252 32.725C15.4002 32.725 17.8064 30.275 17.8064 27.3C17.8064 24.325 15.4002 21.875 12.4252 21.875ZM12.4252 30.1C10.8939 30.1 9.66895 28.8312 9.66895 27.3C9.66895 25.7687 10.9377 24.5 12.4252 24.5C13.9127 24.5 13.9564 30.1 12.4252 30.1Z" fill="#99542D"/>
</svg>
