<svg width="32" height="33" viewBox="0 0 32 33" fill="none" xmlns="http://www.w3.org/2000/svg">
<mask id="mask0_7410_15570" style="mask-type:alpha" maskUnits="userSpaceOnUse" x="0" y="0" width="32" height="33">
<rect y="0.667969" width="32" height="32" fill="#C4C4C4"/>
</mask>
<g mask="url(#mask0_7410_15570)">
<path d="M8.49509 20.8606C6.45367 18.4 5.09142 16.1285 4.18962 13.6918L4.18951 13.6915C3.63438 12.2052 3.43468 11.0559 3.5231 9.97675C3.58116 9.29784 3.84111 8.73761 4.32263 8.25609L6.36866 6.21006C6.65102 5.94536 6.93952 5.81198 7.2116 5.81198C7.54968 5.81198 7.83149 6.01704 8.01738 6.20293L8.02639 6.21193L8.03539 6.22094L8.03535 6.22098L8.03783 6.2233C8.40211 6.56369 8.74885 6.91638 9.11487 7.2944L9.11489 7.29442C9.20827 7.39081 9.3031 7.48715 9.39836 7.58391L9.40057 7.58615C9.49519 7.68226 9.59024 7.77881 9.68525 7.87678L9.68524 7.87679L9.68633 7.87788L11.3253 9.51681C11.6339 9.82548 11.7732 10.1077 11.7732 10.3766C11.7732 10.6456 11.6339 10.9278 11.3253 11.2364C11.2661 11.2956 11.2081 11.3543 11.1505 11.4125C11.037 11.5274 10.9253 11.6404 10.8102 11.7515L10.8102 11.7515L10.8081 11.7536C10.3042 12.2695 9.82583 12.7478 9.30607 13.2138L9.30597 13.2137L9.30211 13.2176L9.29965 13.2197L9.29606 13.2227L9.29048 13.2274C9.28466 13.2323 9.27426 13.2415 9.26437 13.2553C8.99671 13.526 8.88271 13.7989 8.85324 14.0535C8.82381 14.3078 8.87977 14.5354 8.93527 14.7112L8.93526 14.7112L8.93576 14.7127L8.94476 14.7397L8.95377 14.7667L8.95354 14.7668L8.9562 14.7732C9.38696 15.8168 9.99287 16.7973 10.9092 17.9608L10.9086 17.9612L10.917 17.9696L10.9194 17.9719C12.5811 20.0183 14.3349 21.6156 16.2712 22.8401L8.49509 20.8606ZM8.49509 20.8606C8.49504 20.8605 8.49499 20.8604 8.49494 20.8604L8.41828 20.9246L8.49524 20.8607C8.49519 20.8607 8.49514 20.8606 8.49509 20.8606ZM17.8417 21.6223L17.8403 21.6216C17.6233 21.5131 17.4237 21.4132 17.2544 21.3081C15.4882 20.1863 13.8814 18.7234 12.3385 16.8277C11.6122 15.9097 11.12 15.1359 10.7607 14.3574C11.1873 13.964 11.5872 13.5582 11.9745 13.1652C12.0176 13.1215 12.0605 13.0779 12.1033 13.0345C12.1876 12.9503 12.2718 12.8646 12.3556 12.7792L12.3558 12.779C12.4399 12.6934 12.5236 12.6082 12.6073 12.5245C13.2532 11.8786 13.5821 11.1308 13.5821 10.3766C13.5821 9.62248 13.2532 8.87464 12.6073 8.22874L10.9684 6.58981C10.7821 6.40349 10.5911 6.21253 10.4123 6.0218L10.4123 6.02179L10.4112 6.02065C10.0512 5.6486 9.67177 5.26313 9.27983 4.90126C8.68151 4.30965 7.96112 3.99106 7.19959 3.99106C6.4378 3.99106 5.70541 4.30984 5.08918 4.90143L5.08917 4.90141L5.08772 4.90285L5.08172 4.90886L5.07572 4.91486L5.07541 4.91517L3.03456 6.97403C3.03451 6.97408 3.03446 6.97412 3.03441 6.97417C2.24948 7.75917 1.80104 8.71756 1.70292 9.82751L1.70287 9.82812C1.55692 11.6039 2.07983 13.2539 2.47721 14.3256C3.45438 16.9616 4.91361 19.4026 7.08669 22.0151L7.0869 22.0154C9.72527 25.1658 12.9003 27.6541 16.5274 29.4074L16.5281 29.4077C17.9112 30.0632 19.7685 30.8447 21.8475 30.978L21.8491 30.9781C21.9749 30.9841 22.1093 30.9902 22.2321 30.9902C23.6457 30.9902 24.8374 30.4811 25.7696 29.4691L25.7792 29.4587L25.7813 29.4546C25.7837 29.4521 25.7874 29.4483 25.791 29.444C25.7943 29.44 25.7982 29.4351 25.802 29.4292C26.0862 29.0858 26.4108 28.7719 26.7573 28.4368C26.7848 28.4102 26.8124 28.3835 26.8402 28.3567C27.0986 28.1102 27.3638 27.8511 27.6232 27.5796C28.2326 26.9456 28.5576 26.2013 28.5576 25.4331C28.5576 24.6586 28.2262 23.9196 27.6039 23.3033C27.6037 23.3032 27.6036 23.3031 27.6035 23.3029L24.3094 19.9968C24.3092 19.9966 24.3089 19.9964 24.3087 19.9962C23.7106 19.3736 22.9834 19.0356 22.2081 19.0356C21.439 19.0356 20.7061 19.3675 20.0842 19.9894L18.2396 21.8281C18.1574 21.7846 18.0751 21.7424 17.9945 21.701C17.9427 21.6745 17.8916 21.6483 17.8417 21.6223ZM26.3864 26.3877C26.3626 26.4134 26.3386 26.4388 26.3146 26.4641C26.3096 26.4595 26.3048 26.4542 26.3005 26.4481C26.2863 26.4282 26.2819 26.4068 26.2819 26.3899C26.2819 26.3664 26.29 26.3484 26.2969 26.3371C26.3023 26.3313 26.3078 26.3255 26.3132 26.3196L26.3864 26.3876L26.3144 26.3183C26.3181 26.3145 26.3218 26.3107 26.3254 26.3068C26.327 26.3057 26.3285 26.3047 26.3301 26.3037C26.3484 26.2923 26.3683 26.2877 26.3864 26.2877V26.2904C26.3676 26.2897 26.3534 26.2945 26.348 26.2966C26.329 26.3037 26.3181 26.3146 26.3158 26.3169L26.3157 26.317L26.3864 26.3851V26.3877ZM26.4511 26.3179C26.4308 26.3407 26.4097 26.3635 26.3877 26.3863L26.4511 26.3179ZM17.3229 27.7745C17.3228 27.7745 17.3227 27.7744 17.3226 27.7744C17.3225 27.7744 17.3225 27.7743 17.3224 27.7743L17.2793 27.8645L17.3229 27.7745ZM24.4223 28.2525C24.4218 28.2531 24.4213 28.2536 24.4207 28.2542C24.4202 28.2548 24.4197 28.2554 24.4192 28.256L24.4954 28.3208L24.4223 28.2525ZM25.585 27.0477C25.5849 27.0479 25.5847 27.048 25.5845 27.0482C25.5844 27.0483 25.5843 27.0484 25.5842 27.0486L25.654 27.1201L25.585 27.0477Z" fill="#99542D" stroke="#99542D" stroke-width="0.2"/>
<path d="M24.3697 16.2632L24.3697 16.2632L24.3733 16.2626C24.8737 16.1815 25.203 15.7086 25.1224 15.2114L25.1223 15.2106C24.7946 13.2869 23.8842 11.5331 22.495 10.1439C21.1057 8.75457 19.3519 7.84421 17.4282 7.51652L17.4282 7.51652L17.4274 7.51639C16.9296 7.43565 16.4641 7.7656 16.3764 8.25794C16.289 8.74884 16.6116 9.22919 17.113 9.31067C18.6648 9.57134 20.0747 10.3057 21.2009 11.4319C22.3269 12.5579 23.0555 13.9679 23.3222 15.5203C23.3967 15.9661 23.7818 16.2759 24.2193 16.2759C24.2691 16.2759 24.3137 16.2703 24.3553 16.265C24.3602 16.2644 24.365 16.2638 24.3697 16.2632Z" fill="#99542D" stroke="#99542D" stroke-width="0.2"/>
<path d="M16.6045 3.101L16.6045 3.101C16.6919 2.61057 17.1561 2.27178 17.6507 2.35964C20.8049 2.8975 23.6752 4.38413 25.9589 6.66787C28.2426 8.95158 29.7292 11.8218 30.2671 14.976M16.6045 3.101L30.1686 14.9932M16.6045 3.101L16.6043 3.10252C16.5235 3.6008 16.8539 4.06604 17.3521 4.15355L17.3526 4.15365C20.1295 4.6244 22.6622 5.94125 24.6769 7.95004C26.6915 9.96464 28.0023 12.4972 28.4731 15.2741M16.6045 3.101L28.5717 15.2574M30.2671 14.976C30.2671 14.9761 30.2672 14.9763 30.2672 14.9764L30.1686 14.9932M30.2671 14.976C30.2671 14.9759 30.2671 14.9758 30.2671 14.9757L30.1686 14.9932M30.2671 14.976C30.3548 15.4691 30.0174 15.9422 29.5231 16.0167L29.5206 16.017L29.5206 16.017C29.5159 16.0176 29.5111 16.0182 29.5062 16.0188C29.4646 16.0241 29.42 16.0298 29.3701 16.0298C28.9327 16.0298 28.5476 15.72 28.4731 15.2741M30.1686 14.9932C30.2466 15.4315 29.9465 15.8517 29.5082 15.9178C29.5034 15.9184 29.4986 15.919 29.4938 15.9196C29.4516 15.9249 29.4133 15.9298 29.3701 15.9298C28.9799 15.9298 28.6377 15.6536 28.5717 15.2574M28.4731 15.2741L28.5717 15.2574M28.4731 15.2741C28.4731 15.274 28.4731 15.2739 28.4731 15.2738L28.5717 15.2574" fill="#99542D" stroke="#99542D" stroke-width="0.2"/>
</g>
</svg>
